<svg aria-hidden="true" style="position:absolute;width:0;height:0;overflow:hidden" xmlns="http://www.w3.org/2000/svg">
<defs>

<!-- ============= конверт =============== -->
<symbol id="mail" viewBox="0 0 43 32">
<path d="M38.667 0H4C1.795 0 0 1.795 0 4v24c0 2.205 1795 4 4 4h34.667c2.205 0 4-1.795 4-4V4c0-2.205-1795-4-4-4zm0 2.667c.181 0 .355.037.512.104L21.334 18238 3.489 2.771c.151-.065.327-.104.512-.104h34.26.666H4A1.333 1.333 0 0 1 2.667 28V5.587l17.792 15421c.233.203.539.327.875.327s.642-.124.876-.328l-.002001L40 5.587V28c0 .736-.597 1.333-1.333 1.333z"/>
</symbol>

<!-- ============= фейсбук =============== -->
<symbol id="fb" viewBox="0 0 32 32">
<path d="M19 6h5v-6h-5c-3.86 0-7 3.14-7v3h-4v6h4v16h6v-16h5l1-6h-6v-3c0-0.542 0.458-1 1-1z">
</path>
</symbol>
<symbol id="delete" viewBox="0 0 32 32">
<path
d="M8 25.333C8 26.8 9.2 28 10.667 28h10667c1.467 0 2.667-1.2 2.667-2667v-16h-16v16zm17.333-20h-4.667L19.333 4h-6.667l-1.333 1.333H6.666V8h18.667V5333z"
/>
</symbol>

<!-- ============= камера =============== -->
<symbol id="camera" viewBox="0 0 32 32">
<path
d="M20.267 16a4.267 4.267 0 11-8.534 0 4267 4.267 0 018.534 0z"
/>
<path
 d="M12 2.667L9.56 5.334H5.333a2.675 2.0 00-2.667 2.667v16c0 1.467 1.2 2.667 2667 2.667h21.333c1.467 0 2.667-1.2 2667-2.667v-16c0-1.467-1.2-2.667-2.667-2667h-4.227l-2.44-2.667h-8zm4 20c-3.68 0-6667-2.987-6.667-6.667S12.32 9.333 16 9333 22.667 12.32 22.667 16 19.68 22.16 22.667z"
/>
</symbol>

<!-- ============= портфель =============== -->
<symbol id="work" viewBox="0 0 32 32">
<path
d="M26.667 8h-5.333V5.333a2.658 2.658 00-2.667-2.667h-5.333a2.658 2.658 0 00-2667 2.667V8H5.334a2.646 2.646 0 00-2.2.667l-.013 14.667a2.658 2.658 0 002.2.667h21.333a2.658 2.658 0 002.667-2667V10.667A2.658 2.658 0 0026.668 8zm-0h-5.333V5.333h5.333V8z"
/>
</symbol>
<!-- ============= Wi-Fi =============== -->

<symbol id="CN" viewBox="0 0 40 32">
<path d="M20 18c3.308 0 6.308 1.346 8.481 3.519l-2.827 2.827c-1.449-1.449-3.449-2.346-5.654-2.346s-4.206 0.897-5.654 2.346l-2.827-2.827c2.173-2.173 5.173-3.519 8.481-3.519zM5.858 15.858c3.777-3.777 8.8-5.858 14.142-5.858s10.365 2.080 14.142 5.858l-2.828 2.828c-3.022-3.022-7.040-4.686-11.314-4.686s-8.292 1.664-11.314 4.686l-2.828-2.828zM30.899 4.201c3.334 1.41 6.329 3.429 8.899 6v0l-2.828 2.828c-4.533-4.533-10.56-7.029-16.971-7.029s-12.438 2.496-16.971 7.029l-2.828-2.828c2.571-2.571 5.565-4.589 8.899-6 3.453-1.461 7.12-2.201 10.899-2.201s7.446 0.741 10.899 2.201zM18 28c0-1.105 0.895-2 2-2s2 0.895 2 2c0 1.105-0.895 2-2 2s-2-0.895-2-2z"></path>
</symbol>

<!-- =================== close ================== -->
<symbol id="icon-close" viewBox="0 0 32 32">
<path d="M16 0c-8.837 0-16 7.163-16 16s7.163 16 16 16 16-7.163 16-16-7.163-16-16-16zM16 29c-7.18 0-13-5.82-13-13s5.82-13 13-13 13 5.82 13 13-5.82 13-13 13z"></path>
<path d="M21 8l-5 5-5-5-3 3 5 5-5 5 3 3 5-5 5 5 3-3-5-5 5-5z"></path>
</symbol>

<!-- ===================== user =============== -->
<symbol id="icon-user" viewBox="0 0 32 32">
<path d="M18 22.082v-1.649c2.203-1.241 4-4.337 4-7.432 0-4.971 0-9-6-9s-6 4.029-6 9c0 3.096 1.797 6.191 4 7.432v1.649c-6.784 0.555-12 3.888-12 7.918h28c0-4.030-5.216-7.364-12-7.918z"></path>
</symbol>
<!-- ==================== phone ============= -->
<symbol id="icon-phone" viewBox="0 0 32 32">
<path d="M22 20c-2 2-2 4-4 4s-4-2-6-4-4-4-4-6 2-2 4-4-4-8-6-8-6 6-6 6c0 4 4.109 12.109 8 16s12 8 16 8c0 0 6-4 6-6s-6-8-8-6z"></path>
</symbol>
<!-- ================== mail ========================= -->
<symbol id="icon-mail" viewBox="0 0 32 32">
<path d="M29 4h-26c-1.65 0-3 1.35-3 3v20c0 1.65 1.35 3 3 3h26c1.65 0 3-1.35 3-3v-20c0-1.65-1.35-3-3-3zM12.461 17.199l-8.461 6.59v-15.676l8.461 9.086zM5.512 8h20.976l-10.488 7.875-10.488-7.875zM12.79 17.553l3.21 3.447 3.21-3.447 6.58 8.447h-19.579l6.58-8.447zM19.539 17.199l8.461-9.086v15.676l-8.461-6.59z"></path>
</symbol>
<!-- =============== checkbox ============= -->
<symbol id="icon-checkbox" viewBox="0 0 32 32">
<path d="M28 0h-24c-2.2 0-4 1.8-4 4v24c0 2.2 1.8 4 4 4h24c2.2 0 4-1.8 4-4v-24c0-2.2-1.8-4-4-4zM28 28h-24v-24h24v24z"></path>
</symbol>
  </defs>
</svg>